<?xml version="1.0" encoding="UTF-8" standalone="no"?>
<svg width="1146px" height="273px" viewBox="0 0 1146 273" version="1.1" xmlns="http://www.w3.org/2000/svg" xmlns:xlink="http://www.w3.org/1999/xlink">
    <!-- Generator: Sketch 41.2 (35397) - http://www.bohemiancoding.com/sketch -->
    <title>Group</title>
    <desc>Created with Sketch.</desc>
    <defs></defs>
    <g id="Logotype" stroke="none" stroke-width="1" fill="none" fill-rule="evenodd">
        <g id="Group">
            <g id="Papyrus-line-shadow">
                <g id="PAPYRUS">
                    <g id="shadow" transform="translate(5.000000, 268.000000)" fill-opacity="0.110252491" fill="#000000">
                        <path d="M4,8 L148.5,8 C150.709139,8 152.5,6.209139 152.5,4 C152.5,1.790861 150.709139,0 148.5,0 L4,0 C1.790861,0 0,1.790861 0,4 C0,6.209139 1.790861,8 4,8 Z" id="Line"></path>
                        <path d="M169.5,8 L221,8 C223.209139,8 225,6.209139 225,4 C225,1.790861 223.209139,0 221,0 L169.5,0 C167.290861,0 165.5,1.790861 165.5,4 C165.5,6.209139 167.290861,8 169.5,8 Z" id="Line"></path>
                    </g>
                    <g id="paper" transform="translate(21.000000, 47.000000)">
                        <path d="M190.816908,118.786619 C191.473285,118.130242 191.842034,117.240003 191.842034,116.311745 L191.842034,48.928975 C191.842034,48.0007173 191.473285,47.1104786 190.816908,46.4541013 L179.449747,35.0869409 L187.66447,35.0869409 C189.598277,35.0869409 191.165616,33.5186725 191.16447,31.5848658 L191.148115,3.99792498 C191.146969,2.0649287 189.579036,0.498854613 187.64604,0.500000615 C185.713044,0.501146617 184.14697,2.06907874 184.148116,4.00207502 L184.162395,28.0869409 L171,28.0869409 C167.881833,28.0869409 166.320249,31.8569376 168.525126,34.0618146 L184.842034,50.3787225 L184.842034,114.861998 L175.516887,124.187145 C174.150052,125.55398 174.150052,127.770058 175.516887,129.136893 L184.148115,137.768121 L184.148115,159 C184.148115,160.932997 185.715119,162.5 187.648115,162.5 C189.581112,162.5 191.148115,160.932997 191.148115,159 L191.148115,136.318374 C191.148115,135.390116 190.779366,134.499877 190.122989,133.8435 L182.941508,126.662019 L190.816908,118.786619 Z" id="Path-2" fill="#1C8AE5"></path>
                        <path d="M7.03944002,137.666113 L1.89286999,143.836651 C1.36692021,144.467245 1.07943079,145.262687 1.08069398,146.083826 L1.11559862,168.773609 C1.00711673,171.657712 1.36469512,174.932732 2.60895912,178.185311 C5.02943956,184.51259 10.1602339,188.5 18.0789895,188.5 C27.3108883,188.5 33.2169997,184.741565 35.8811729,178.525161 C37.2165256,175.409338 37.5405184,172.234208 37.3200082,169.45578 C37.3090004,169.317082 37.2861019,164.859598 37.2861019,164.859598 L197.568778,164.859598 C197.544053,167.30501 197.291522,169.91169 196.707776,172.371713 C195.288528,178.352707 192.450578,181.5 187.491416,181.5 L42.7615947,181.5 C40.8285981,181.5 39.2615947,183.067003 39.2615947,185 C39.2615947,186.932997 40.8285981,188.5 42.7615947,188.5 L187.491416,188.5 C196.275977,188.5 201.431833,182.782143 203.518648,173.987885 C204.487319,169.905712 204.703193,165.694005 204.505099,161.983701 C204.481673,161.54492 204.457288,161.221411 204.439014,161.028878 C204.268468,159.232073 202.759555,157.859598 200.954674,157.859598 L33.7861019,157.859598 C31.8531053,157.859598 30.2861019,159.426601 30.2861019,161.359598 L30.2861019,169.292888 C30.3224257,169.795892 30.3310802,169.872628 30.3419505,170.009594 C30.48046,171.754813 30.2659233,173.857273 29.4471577,175.767726 C27.9040686,179.368267 24.5542031,181.5 18.0789895,181.5 C13.2357163,181.5 10.5830756,179.438493 9.14689894,175.684243 C8.66698954,174.429732 8.36172201,173.051702 8.20765643,171.640633 C8.10214226,170.67424 8.07997311,169.832785 8.10335044,169.205392 C8.11306141,169.029787 8.08264103,147.34412 8.08264103,147.34412 L14.4714139,139.684229 C15.6346741,138.289525 15.5378924,136.236778 14.2485707,134.957707 L7.5,128.262791 L7.5,4 C7.5,2.06700338 5.93299662,0.5 4,0.5 C2.06700338,0.5 0.5,2.06700338 0.5,4 L0.5,129.720728 C0.5,130.653827 0.872594579,131.548297 1.5350234,132.20546 L7.03944002,137.666113 Z" id="Path-3" fill="#1787E5"></path>
                    </g>
                    <g id="header" fill="#0981E5">
                        <path d="M22,44 L214,44 L214,7 L22,7 L22,44 Z M15,6.00031854 C15,2.68643412 17.6799435,0 20.9982047,0 L215.001795,0 C218.314512,0 221,2.6880479 221,6.00031854 L221,44.9996815 C221,48.3135659 218.320056,51 215.001795,51 L20.9982047,51 C17.6854877,51 15,48.3119521 15,44.9996815 L15,6.00031854 Z" id="Rectangle"></path>
                        <path d="M221,37 L229,37 L229,14 L221,14 L221,37 Z M214,13.0064114 C214,9.68916199 216.686626,7 219.997062,7 L230.002938,7 C233.315024,7 236,9.69075263 236,13.0064114 L236,37.9935886 C236,41.310838 233.313374,44 230.002938,44 L219.997062,44 C216.684976,44 214,41.3092474 214,37.9935886 L214,13.0064114 Z" id="Rectangle-2"></path>
                        <path d="M7,37 L15,37 L15,14 L7,14 L7,37 Z M0,13.0064114 C0,9.68916199 2.68662575,7 5.99706188,7 L16.0029381,7 C19.3150239,7 22,9.69075263 22,13.0064114 L22,37.9935886 C22,41.310838 19.3133742,44 16.0029381,44 L5.99706188,44 C2.68497606,44 0,41.3092474 0,37.9935886 L0,13.0064114 Z" id="Rectangle-2"></path>
                    </g>
                    <g id="lines" transform="translate(50.000000, 76.000000)" fill="#1184E5">
                        <g id="row-1">
                            <path d="M55.5,0 L3.5,0 C1.56700338,0 0,1.56700338 0,3.5 C0,5.43299662 1.56700338,7 3.5,7 L55.5,7 C57.4329966,7 59,5.43299662 59,3.5 C59,1.56700338 57.4329966,0 55.5,0 Z" id="Line"></path>
                        </g>
                        <g id="row-2" transform="translate(0.000000, 18.000000)">
                            <path d="M29.5,0 L3.5,0 C1.56700338,0 0,1.56700338 0,3.5 C0,5.43299662 1.56700338,7 3.5,7 L29.5,7 C31.4329966,7 33,5.43299662 33,3.5 C33,1.56700338 31.4329966,0 29.5,0 Z" id="Line"></path>
                            <path d="M103.5,0 L45.5,0 C43.5670034,0 42,1.56700338 42,3.5 C42,5.43299662 43.5670034,7 45.5,7 L103.5,7 C105.432997,7 107,5.43299662 107,3.5 C107,1.56700338 105.432997,0 103.5,0 Z" id="Line"></path>
                        </g>
                        <g id="row-3" transform="translate(0.000000, 36.000000)">
                            <path d="M55.5,0 L3.5,0 C1.56700338,0 0,1.56700338 0,3.5 C0,5.43299662 1.56700338,7 3.5,7 L55.5,7 C57.4329966,7 59,5.43299662 59,3.5 C59,1.56700338 57.4329966,0 55.5,0 Z" id="Line"></path>
                            <path d="M97.5,0 L71.5,0 C69.5670034,0 68,1.56700338 68,3.5 C68,5.43299662 69.5670034,7 71.5,7 L97.5,7 C99.4329966,7 101,5.43299662 101,3.5 C101,1.56700338 99.4329966,0 97.5,0 Z" id="Line"></path>
                        </g>
                        <g id="row-4" transform="translate(0.000000, 55.000000)">
                            <path d="M83.5,0 L57.5,0 C55.5670034,0 54,1.56700338 54,3.5 C54,5.43299662 55.5670034,7 57.5,7 L83.5,7 C85.4329966,7 87,5.43299662 87,3.5 C87,1.56700338 85.4329966,0 83.5,0 Z" id="Line"></path>
                            <path d="M14.5,0 L3.5,0 C1.56700338,0 0,1.56700338 0,3.5 C0,5.43299662 1.56700338,7 3.5,7 L14.5,7 C16.4329966,7 18,5.43299662 18,3.5 C18,1.56700338 16.4329966,0 14.5,0 Z" id="Line"></path>
                            <path d="M41.5,0 L30.5,0 C28.5670034,0 27,1.56700338 27,3.5 C27,5.43299662 28.5670034,7 30.5,7 L41.5,7 C43.4329966,7 45,5.43299662 45,3.5 C45,1.56700338 43.4329966,0 41.5,0 Z" id="Line"></path>
                        </g>
                        <g id="row-5" transform="translate(0.000000, 73.000000)">
                            <path d="M56.5,0 L45.5,0 C43.5670034,0 42,1.56700338 42,3.5 C42,5.43299662 43.5670034,7 45.5,7 L56.5,7 C58.4329966,7 60,5.43299662 60,3.5 C60,1.56700338 58.4329966,0 56.5,0 Z" id="Line"></path>
                            <path d="M29.5,0 L3.5,0 C1.56700338,0 0,1.56700338 0,3.5 C0,5.43299662 1.56700338,7 3.5,7 L29.5,7 C31.4329966,7 33,5.43299662 33,3.5 C33,1.56700338 31.4329966,0 29.5,0 Z" id="Line"></path>
                            <path d="M124.5,0 L72.5,0 C70.5670034,0 69,1.56700338 69,3.5 C69,5.43299662 70.5670034,7 72.5,7 L124.5,7 C126.432997,7 128,5.43299662 128,3.5 C128,1.56700338 126.432997,0 124.5,0 Z" id="Line"></path>
                        </g>
                        <g id="row-6" transform="translate(0.000000, 91.000000)">
                            <path d="M29.5,0 L3.5,0 C1.56700338,0 0,1.56700338 0,3.5 C0,5.43299662 1.56700338,7 3.5,7 L29.5,7 C31.4329966,7 33,5.43299662 33,3.5 C33,1.56700338 31.4329966,0 29.5,0 Z" id="Line"></path>
                        </g>
                    </g>
                </g>
            </g>
            <path d="M344.478516,119.076172 L355.933594,119.076172 C366.640027,119.076172 374.651015,116.961121 379.966797,112.730957 C385.282579,108.500793 387.94043,102.342814 387.94043,94.2568359 C387.94043,86.0959878 385.713076,80.0690299 381.258301,76.1757812 C376.803526,72.2825326 369.821988,70.3359375 360.313477,70.3359375 L344.478516,70.3359375 L344.478516,119.076172 Z M423.091797,93.0214844 C423.091797,110.690844 417.570205,124.204706 406.526855,133.563477 C395.483506,142.922247 379.779724,147.601562 359.415039,147.601562 L344.478516,147.601562 L344.478516,206 L309.664062,206 L309.664062,41.8105469 L362.110352,41.8105469 C382.025816,41.8105469 397.16808,46.0967996 407.537598,54.6694336 C417.907116,63.2420676 423.091797,76.0259567 423.091797,93.0214844 Z M521.128906,206 L514.50293,188.929688 L513.604492,188.929688 C507.839489,196.192094 501.906118,201.227037 495.804199,204.034668 C489.702281,206.842299 481.747445,208.246094 471.939453,208.246094 C459.885356,208.246094 450.395705,204.802118 443.470215,197.914062 C436.544724,191.026007 433.082031,181.218163 433.082031,168.490234 C433.082031,155.163345 437.742629,145.336783 447.063965,139.010254 C456.385301,132.683725 470.441963,129.183597 489.234375,128.509766 L511.021484,127.835938 L511.021484,122.333008 C511.021484,109.60508 504.507878,103.241211 491.480469,103.241211 C481.447867,103.241211 469.655992,106.273407 456.104492,112.337891 L444.761719,89.203125 C459.211661,81.6412382 475.233636,77.8603516 492.828125,77.8603516 C509.673912,77.8603516 522.588822,81.5289347 531.573242,88.8662109 C540.557662,96.2034872 545.049805,107.358975 545.049805,122.333008 L545.049805,206 L521.128906,206 Z M511.021484,147.826172 L497.769531,148.275391 C487.811799,148.574871 480.399764,150.371728 475.533203,153.666016 C470.666642,156.960303 468.233398,161.976529 468.233398,168.714844 C468.233398,178.373095 473.773708,183.202148 484.854492,183.202148 C492.79073,183.202148 499.135881,180.918643 503.890137,176.351562 C508.644392,171.784482 511.021484,165.72009 511.021484,158.158203 L511.021484,147.826172 Z M639.268555,208.246094 C624.519132,208.246094 612.951865,202.892957 604.566406,192.186523 L602.769531,192.186523 C603.967454,202.668347 604.566406,208.732739 604.566406,210.379883 L604.566406,261.253906 L570.313477,261.253906 L570.313477,80.4433594 L598.165039,80.4433594 L602.994141,96.7275391 L604.566406,96.7275391 C612.577514,84.2990915 624.444257,78.0849609 640.166992,78.0849609 C654.991285,78.0849609 666.595987,83.8124427 674.981445,95.2675781 C683.366904,106.722714 687.55957,122.632385 687.55957,142.99707 C687.55957,156.39883 685.594258,168.040966 681.663574,177.923828 C677.732891,187.80669 672.13643,195.331029 664.874023,200.49707 C657.611617,205.663112 649.076546,208.246094 639.268555,208.246094 Z M629.161133,105.487305 C620.700804,105.487305 614.524108,108.089004 610.630859,113.29248 C606.737611,118.495957 604.716147,127.08718 604.566406,139.066406 L604.566406,142.772461 C604.566406,156.249091 606.569153,165.907197 610.574707,171.74707 C614.580261,177.586943 620.925412,180.506836 629.610352,180.506836 C644.958736,180.506836 652.632812,167.853968 652.632812,142.547852 C652.632812,130.194274 650.742369,120.92923 646.961426,114.752441 C643.180482,108.575653 637.247111,105.487305 629.161133,105.487305 Z M683.287109,80.4433594 L720.796875,80.4433594 L744.493164,151.083008 C746.514659,157.222361 747.899736,164.484659 748.648438,172.870117 L749.322266,172.870117 C750.145837,165.15849 751.755522,157.896193 754.151367,151.083008 L777.398438,80.4433594 L814.12207,80.4433594 L761.001953,222.05957 C756.135392,235.161849 749.191289,244.969694 740.169434,251.483398 C731.147579,257.997103 720.609761,261.253906 708.555664,261.253906 C702.640921,261.253906 696.83857,260.617519 691.148438,259.344727 L691.148438,232.166992 C695.266297,233.140304 699.758439,233.626953 704.625,233.626953 C710.689483,233.626953 715.986468,231.773944 720.516113,228.067871 C725.045758,224.361798 728.583321,218.765337 731.128906,211.27832 L733.150391,205.101562 L683.287109,80.4433594 Z M892.168945,78.0849609 C896.810896,78.0849609 900.666651,78.4218716 903.736328,79.0957031 L901.15332,111.214844 C898.383124,110.466142 895.014017,110.091797 891.045898,110.091797 C880.114854,110.091797 871.598501,112.899386 865.496582,118.514648 C859.394664,124.129911 856.34375,131.99116 856.34375,142.098633 L856.34375,206 L822.09082,206 L822.09082,80.4433594 L848.033203,80.4433594 L853.086914,101.556641 L854.771484,101.556641 C858.664733,94.518845 863.924283,88.847515 870.550293,84.5424805 C877.176303,80.2374459 884.382448,78.0849609 892.168945,78.0849609 Z M1005.47949,206 L1000.875,189.94043 L999.078125,189.94043 C995.409487,195.780303 990.206088,200.291162 983.467773,203.473145 C976.729458,206.655127 969.055382,208.246094 960.445312,208.246094 C945.69589,208.246094 934.577837,204.296752 927.09082,196.397949 C919.603804,188.499147 915.860352,177.137769 915.860352,162.313477 L915.860352,80.4433594 L950.113281,80.4433594 L950.113281,153.77832 C950.113281,162.83761 951.722966,169.631976 954.942383,174.161621 C958.1618,178.691266 963.290329,180.956055 970.328125,180.956055 C979.911506,180.956055 986.836893,177.755403 991.104492,171.354004 C995.372092,164.952605 997.505859,154.339918 997.505859,139.515625 L997.505859,80.4433594 L1031.75879,80.4433594 L1031.75879,206 L1005.47949,206 Z M1145.29395,168.714844 C1145.29395,181.592512 1140.82052,191.400357 1131.87354,198.138672 C1122.92655,204.876987 1109.54371,208.246094 1091.72461,208.246094 C1082.59045,208.246094 1074.80407,207.628424 1068.36523,206.393066 C1061.9264,205.157709 1055.89944,203.342134 1050.28418,200.946289 L1050.28418,172.645508 C1056.64814,175.640314 1063.81685,178.148427 1071.79053,180.169922 C1079.7642,182.191416 1086.78317,183.202148 1092.84766,183.202148 C1105.2761,183.202148 1111.49023,179.608434 1111.49023,172.420898 C1111.49023,169.725572 1110.66667,167.535653 1109.01953,165.851074 C1107.37239,164.166495 1104.52736,162.257335 1100.48438,160.123535 C1096.44139,157.989735 1091.05081,155.50034 1084.3125,152.655273 C1074.65425,148.612284 1067.56041,144.868832 1063.03076,141.424805 C1058.50112,137.980777 1055.20688,134.031435 1053.14795,129.57666 C1051.08902,125.121885 1050.05957,119.637728 1050.05957,113.124023 C1050.05957,101.968369 1054.38326,93.3397115 1063.03076,87.237793 C1071.67827,81.1358744 1083.93807,78.0849609 1099.81055,78.0849609 C1114.93432,78.0849609 1129.64609,81.3791988 1143.94629,87.9677734 L1133.61426,112.674805 C1127.32516,109.979479 1121.44794,107.770842 1115.98242,106.048828 C1110.5169,104.326814 1104.93916,103.46582 1099.24902,103.46582 C1089.14155,103.46582 1084.08789,106.19854 1084.08789,111.664062 C1084.08789,114.733739 1085.71629,117.39159 1088.97314,119.637695 C1092.23,121.8838 1099.36127,125.215473 1110.36719,129.632812 C1120.17518,133.600931 1127.36261,137.306949 1131.92969,140.750977 C1136.49677,144.195004 1139.86587,148.163063 1142.03711,152.655273 C1144.20834,157.147483 1145.29395,162.50062 1145.29395,168.714844 Z" id="Papyrus" fill="#1184E5"></path>
        </g>
    </g>
</svg>